<svg xmlns="http://www.w3.org/2000/svg" width="600" height="250.428" viewBox="0 0 600 250.428"><path d="M453.188 184.521l16.25 24.499h2.144v-28.17h-2.145v24.401l-16.249-24.401h-2.144v28.17h2.144V184.52zm-69.164 24.499v-28.17h-2.145v24.401l-16.25-24.401h-2.144v28.17h2.145V184.52l16.249 24.499h2.145zm-65.177-.3c.857-.2 1.645-.49 2.367-.87a7.866 7.866 0 0 0 1.913-1.4c1.146-1.146 1.89-2.648 2.232-4.502.34-1.854.511-4.018.511-6.492v-1.796c0-2.345-.167-4.35-.502-6.019-.335-1.668-1.082-3.075-2.241-4.222a7.862 7.862 0 0 0-1.923-1.41 9.983 9.983 0 0 0-2.357-.86c-.856-.2-1.774-.3-2.753-.3h-9.467v28.17h9.467c.979 0 1.897-.1 2.753-.299zm-10.075-1.593v-24.384h6.8c2.628 0 4.644.728 6.048 2.183.889.89 1.462 2.02 1.72 3.391.257 1.372.386 3.05.386 5.033v2.416c0 2.15-.13 3.996-.387 5.534-.257 1.54-.83 2.754-1.72 3.643-1.403 1.455-3.419 2.184-6.047 2.184h-6.8zm27.08-20.732l2.763-2.783v-2.762h-2.764v5.545zm-107.676 19.978c.837-.837 1.436-1.72 1.796-2.648.36-.926.586-1.99.677-3.187.09-1.198.135-3.065.135-5.603s-.046-4.406-.135-5.603c-.09-1.198-.316-2.261-.677-3.19-.36-.926-.96-1.809-1.796-2.646a9.752 9.752 0 0 0-3.188-2.125 9.943 9.943 0 0 0-3.846-.754c-1.352 0-2.637.252-3.854.754a9.717 9.717 0 0 0-3.198 2.125c-.837.837-1.436 1.72-1.796 2.647-.361.928-.587 1.991-.677 3.189-.09 1.197-.135 3.065-.135 5.603s.045 4.405.135 5.603c.09 1.197.316 2.26.677 3.187.36.928.96 1.81 1.796 2.648a9.712 9.712 0 0 0 3.208 2.125c1.223.502 2.505.754 3.844.754 1.34 0 2.619-.252 3.836-.754a9.745 9.745 0 0 0 3.198-2.125zm-7.043.984a7.654 7.654 0 0 1-2.894-.56 7.272 7.272 0 0 1-2.451-1.623 6.178 6.178 0 0 1-1.428-2.182c-.308-.812-.508-1.8-.598-2.967-.09-1.165-.135-2.862-.135-5.09 0-1.494.02-2.77.058-3.827.038-1.056.135-1.995.289-2.82.154-.824.37-1.508.646-2.048a6.306 6.306 0 0 1 1.168-1.566 7.117 7.117 0 0 1 2.46-1.622c.92-.36 1.882-.54 2.885-.54 1.016 0 1.978.18 2.885.54.907.36 1.72.901 2.44 1.622a6.274 6.274 0 0 1 1.448 2.194c.309.804.508 1.793.598 2.966.09 1.172.135 2.873.135 5.1 0 2.229-.045 3.926-.135 5.091-.09 1.166-.286 2.148-.589 2.948-.302.798-.788 1.532-1.456 2.201a7.32 7.32 0 0 1-2.432 1.623 7.563 7.563 0 0 1-2.894.56zm37.311-.23H243.49V180.85h-2.144v28.17h17.098v-1.893zm-83.85 0H159.64v-11.361h12.733v-1.895H159.64v-11.128h14.954v-1.893h-17.098v28.17h17.098v-1.893zm177.23-26.277h-2.145v28.17h2.144v-28.17zm-67.787 26.277h-14.954v-11.361h12.733v-1.895h-12.733v-11.128h14.954v-1.893h-17.099v28.17h17.099v-1.893zm-98.514-18.84c.154-.823.37-1.507.647-2.047a6.298 6.298 0 0 1 1.169-1.566 7.13 7.13 0 0 1 2.463-1.622c.92-.36 1.884-.54 2.888-.54 1.881 0 3.482.566 4.802 1.7 1.32 1.132 2.186 2.679 2.598 4.637h2.164c-.309-1.714-.898-3.186-1.768-4.416a8.69 8.69 0 0 0-3.313-2.83c-1.34-.657-2.834-.986-4.483-.986-1.352 0-2.637.252-3.854.754a9.714 9.714 0 0 0-3.198 2.125c-.837.837-1.436 1.72-1.796 2.647-.361.928-.587 1.991-.677 3.189-.09 1.197-.135 3.065-.135 5.603s.045 4.405.135 5.603c.09 1.197.316 2.26.677 3.187.36.928.959 1.81 1.796 2.648a9.711 9.711 0 0 0 3.207 2.125c1.224.502 2.506.754 3.845.754 1.624 0 3.108-.33 4.454-.986a8.708 8.708 0 0 0 3.333-2.84c.875-1.236 1.468-2.705 1.777-4.406h-2.086c-.258 1.263-.744 2.38-1.46 3.353-.714.972-1.583 1.712-2.607 2.222-1.024.51-2.161.762-3.41.762a7.674 7.674 0 0 1-2.898-.56 7.278 7.278 0 0 1-2.454-1.623 6.164 6.164 0 0 1-1.43-2.182c-.309-.812-.51-1.8-.6-2.967-.09-1.165-.134-2.862-.134-5.09 0-1.494.02-2.77.058-3.827.038-1.056.135-1.995.29-2.82zm255.986 18.84h-14.955v-11.361h12.732v-1.895h-12.732v-11.128h14.955v-1.893h-17.1v28.17h17.1v-1.893zm96.442.936a8.552 8.552 0 0 0 3.423-3.333c.82-1.43 1.229-3.046 1.229-4.85v-19.03h-2.145v18.76c0 1.546-.311 2.901-.935 4.067a6.64 6.64 0 0 1-2.663 2.715c-1.152.644-2.455.965-3.908.965-1.48 0-2.792-.321-3.937-.965a6.651 6.651 0 0 1-2.653-2.715c-.624-1.166-.936-2.521-.936-4.067v-18.76h-2.145v19.03c0 1.804.41 3.42 1.229 4.85a8.535 8.535 0 0 0 3.442 3.333c1.477.793 3.144 1.189 5 1.189 1.869 0 3.535-.396 5-1.189zm-40.9.957h17.1v-1.893h-14.955v-11.361h12.733v-1.895h-12.733v-11.128h14.955v-1.893h-17.1v28.17zm-13.806 0h2.145v-28.17h-2.145v28.17zm87.249 0h2.493l-6.802-13.024c2.023-.346 3.61-1.184 4.763-2.51 1.153-1.328 1.73-3.02 1.73-5.082 0-1.585-.348-2.946-1.043-4.087a6.69 6.69 0 0 0-2.87-2.589c-1.217-.585-2.605-.878-4.163-.878H553.88v28.17h2.144v-12.985h7.748l6.723 12.985zm-14.47-26.277h8.307c1.881 0 3.384.484 4.511 1.449 1.128.966 1.69 2.383 1.69 4.25 0 .954-.154 1.79-.462 2.513-.31.72-.735 1.314-1.275 1.777-.542.463-1.192.815-1.953 1.053-.76.238-1.597.357-2.51.357h-8.309v-11.4zm33.88 26.509c1.441 0 2.76-.185 3.95-.551 1.192-.368 2.196-.89 3.014-1.565a6.675 6.675 0 0 0 1.875-2.473c.43-.972.646-2.039.646-3.198 0-1.121-.208-2.147-.628-3.081s-1.03-1.73-1.83-2.388a6.345 6.345 0 0 0-1.973-1.158c-.735-.271-1.754-.502-3.057-.696l-3.03-.482a9.251 9.251 0 0 1-2.266-.629c-.766-.316-1.412-.685-1.94-1.11-.965-.813-1.447-2.035-1.447-3.672 0-1.79.579-3.207 1.736-4.25 1.158-1.043 2.753-1.565 4.786-1.565 1.543 0 2.82.212 3.83.638 1.009.424 2.01 1.081 3 1.97l1.397-1.39c-1.223-1.057-2.452-1.827-3.688-2.31-1.236-.483-2.709-.725-4.422-.725-1.312 0-2.515.177-3.61.532-1.093.355-2.014.862-2.76 1.527a6.861 6.861 0 0 0-1.747 2.433c-.418.96-.628 2.033-.628 3.217 0 2.216.74 3.943 2.22 5.179 1.21 1.056 2.882 1.745 5.018 2.067l3.281.502c1.08.168 1.91.357 2.489.57a5.116 5.116 0 0 1 1.582.937c1.029.915 1.543 2.236 1.543 3.962 0 1.197-.295 2.237-.888 3.12-.591.882-1.427 1.552-2.508 2.01-1.081.457-2.36.684-3.84.684-1.106 0-2.11-.1-3.01-.299a8.142 8.142 0 0 1-2.527-1.023c-.785-.484-1.603-1.15-2.452-2l-1.507 1.507c.85.85 1.74 1.552 2.666 2.106.928.554 1.945.96 3.053 1.217 1.108.257 2.33.387 3.672.387zm-178.26-3.247c1.52-1.622 2.28-3.889 2.28-6.8v-4.58h-9.69v1.894h7.545v2.53c0 1.225-.132 2.275-.396 3.15a7.08 7.08 0 0 1-1.302 2.434 7.295 7.295 0 0 1-2.615 2.02c-1.022.47-2.1.704-3.232.704a7.655 7.655 0 0 1-2.894-.56 7.274 7.274 0 0 1-2.451-1.623 6.184 6.184 0 0 1-1.427-2.182c-.31-.812-.51-1.8-.599-2.967-.09-1.165-.135-2.862-.135-5.09 0-1.494.02-2.77.058-3.827a19.19 19.19 0 0 1 .29-2.82c.154-.824.37-1.508.647-2.048.275-.54.665-1.062 1.166-1.566a7.135 7.135 0 0 1 2.46-1.622c.92-.36 1.881-.54 2.885-.54 1.248 0 2.383.253 3.406.762s1.892 1.25 2.605 2.222c.714.973 1.2 2.09 1.457 3.353h2.145c-.426-2.486-1.515-4.48-3.267-5.98-1.751-1.501-3.863-2.252-6.335-2.252-1.354 0-2.638.252-3.856.754a9.707 9.707 0 0 0-3.196 2.125c-.839.837-1.438 1.72-1.798 2.647-.36.928-.585 1.991-.676 3.189-.09 1.197-.136 3.065-.136 5.603s.046 4.405.136 5.603c.09 1.197.315 2.26.676 3.187.36.928.96 1.81 1.798 2.648a9.7 9.7 0 0 0 3.206 2.125c1.224.502 2.505.754 3.846.754a10 10 0 0 0 4.076-.85 9.632 9.632 0 0 0 3.323-2.397zm160.313 34.464c0 1.42-.288 2.666-.86 3.737a6.092 6.092 0 0 1-2.447 2.495c-1.057.59-2.255.887-3.59.887-1.359 0-2.565-.296-3.617-.887a6.099 6.099 0 0 1-2.438-2.495c-.573-1.07-.86-2.316-.86-3.737v-17.238h-1.97v17.487c0 1.658.376 3.142 1.128 4.456a7.837 7.837 0 0 0 3.163 3.062c1.357.728 2.888 1.092 4.593 1.092 1.72 0 3.25-.364 4.593-1.092a7.866 7.866 0 0 0 3.146-3.062c.754-1.314 1.129-2.798 1.129-4.456V223.23h-1.97v17.238zm-54.486 8.646h1.97V223.23h-1.97v25.884zm-317.536-8.646c0 1.42-.286 2.666-.86 3.737a6.09 6.09 0 0 1-2.446 2.495c-1.058.59-2.255.887-3.59.887-1.36 0-2.566-.296-3.618-.887a6.106 6.106 0 0 1-2.437-2.495c-.574-1.07-.86-2.316-.86-3.737v-17.238h-1.97v17.487c0 1.658.375 3.142 1.127 4.456a7.843 7.843 0 0 0 3.164 3.062c1.356.728 2.888 1.092 4.594 1.092 1.717 0 3.248-.364 4.593-1.092a7.866 7.866 0 0 0 3.145-3.062c.753-1.314 1.129-2.798 1.129-4.456V223.23h-1.97v17.238zm346.372 3.293c.263-.834.424-1.77.484-2.804.06-1.035.09-2.63.09-4.784 0-2.333-.043-4.048-.125-5.149-.083-1.1-.29-2.078-.622-2.93-.33-.851-.882-1.662-1.65-2.432a8.953 8.953 0 0 0-2.93-1.952 9.12 9.12 0 0 0-3.533-.693 9.19 9.19 0 0 0-3.541.693 8.918 8.918 0 0 0-2.937 1.952c-.77.77-1.322 1.58-1.652 2.432-.33.852-.54 1.83-.621 2.93-.084 1.1-.125 2.816-.125 5.149 0 2.33.041 4.046.125 5.147.082 1.1.289 2.078.62 2.93.331.852.881 1.663 1.65 2.432a8.89 8.89 0 0 0 2.943 1.952c1.123.462 2.3.693 3.53.693 2.15 0 4.047-.651 5.692-1.953l3.068 3.053 1.315-1.313-3.071-3.053a6.529 6.529 0 0 0 1.29-2.3zm-1.61-1.952c-.142 1.13-.484 2.098-1.028 2.902l-3.6-3.604-1.294 1.314 3.613 3.64c-1.275 1.017-2.734 1.526-4.377 1.526a7.023 7.023 0 0 1-2.659-.515 6.675 6.675 0 0 1-2.252-1.49 5.67 5.67 0 0 1-1.31-2.007c-.285-.746-.468-1.653-.55-2.726-.083-1.07-.123-2.628-.123-4.676 0-1.373.016-2.546.052-3.515.035-.971.125-1.835.266-2.593.142-.757.34-1.384.595-1.881a5.72 5.72 0 0 1 1.072-1.439 6.544 6.544 0 0 1 2.26-1.49 7.206 7.206 0 0 1 2.65-.498c.934 0 1.819.167 2.651.497.833.332 1.58.828 2.243 1.491a5.779 5.779 0 0 1 1.33 2.015c.283.74.467 1.649.55 2.726.082 1.077.124 2.639.124 4.687 0 2.627-.072 4.505-.213 5.636zM600 224.97v-1.739h-15.711v25.884H600v-1.74h-13.741v-10.439h11.699v-1.74h-11.699v-10.225H600zm-427.698.623a7.207 7.207 0 0 0-1.767-1.297 9.142 9.142 0 0 0-2.166-.79 11.14 11.14 0 0 0-2.53-.275h-8.698v25.884h8.699c.9 0 1.742-.091 2.53-.276a9.066 9.066 0 0 0 2.174-.798 7.238 7.238 0 0 0 1.758-1.287c1.053-1.053 1.736-2.432 2.05-4.137.314-1.704.471-3.692.471-5.965v-1.65c0-2.154-.154-3.998-.462-5.53-.308-1.533-.994-2.826-2.06-3.879zm.55 11.343c0 1.977-.119 3.673-.355 5.086-.237 1.415-.763 2.53-1.58 3.347-1.29 1.338-3.142 2.006-5.557 2.006h-6.248v-22.404h6.248c2.415 0 4.267.668 5.557 2.006.817.818 1.343 1.856 1.58 3.116.236 1.261.355 2.803.355 4.624v2.22zm127.196 8.718l-14.93-22.423h-1.97v25.884h1.97v-22.51l14.93 22.51h1.97V223.23h-1.97v22.423zm144.853-2.468l-9.018-19.955h-1.97v25.884h1.97v-21.338l7.99 17.698h1.97l7.846-17.698v21.338h1.97V223.23h-1.97l-8.788 19.955zm61.632-8.344c1.06-1.22 1.59-2.776 1.59-4.669 0-1.457-.321-2.708-.96-3.755a6.139 6.139 0 0 0-2.636-2.378c-1.119-.54-2.394-.809-3.826-.809h-9.853v25.884h1.97v-11.93h7.12l6.178 11.93h2.29l-6.249-11.966c1.857-.318 3.317-1.088 4.376-2.307zm-13.714.603v-10.474h7.633c1.728 0 3.11.444 4.146 1.331 1.035.888 1.554 2.191 1.554 3.907 0 .875-.143 1.644-.428 2.307-.283.663-.673 1.208-1.17 1.634a5.009 5.009 0 0 1-1.793.966c-.699.22-1.47.33-2.309.33h-7.633zm-71.238 5.024c0 1.42-.288 2.666-.86 3.737a6.093 6.093 0 0 1-2.446 2.495c-1.058.59-2.255.887-3.591.887-1.359 0-2.565-.296-3.617-.887a6.099 6.099 0 0 1-2.438-2.495c-.573-1.07-.859-2.316-.859-3.737v-17.238h-1.97v17.487c0 1.658.375 3.142 1.127 4.456a7.837 7.837 0 0 0 3.163 3.062c1.357.728 2.888 1.092 4.594 1.092 1.718 0 3.25-.364 4.593-1.092a7.866 7.866 0 0 0 3.145-3.062c.754-1.314 1.13-2.798 1.13-4.456V223.23h-1.971v17.238zm-81.461 8.646h15.711v-1.74h-13.74v-10.439h11.698v-1.74H342.09v-10.225h13.741v-1.74H340.12v25.884zm-12.225-23.522a7.207 7.207 0 0 0-1.766-1.297 9.143 9.143 0 0 0-2.166-.79 11.14 11.14 0 0 0-2.53-.275h-8.698v25.884h8.698c.9 0 1.743-.091 2.53-.276a9.067 9.067 0 0 0 2.175-.798 7.238 7.238 0 0 0 1.757-1.287c1.054-1.053 1.737-2.432 2.051-4.137.313-1.704.47-3.692.47-5.965v-1.65c0-2.154-.154-3.998-.461-5.53-.308-1.533-.994-2.826-2.06-3.879zm.55 11.343c0 1.977-.118 3.673-.354 5.086-.238 1.415-.763 2.53-1.58 3.347-1.29 1.338-3.143 2.006-5.557 2.006h-6.249v-22.404h6.249c2.414 0 4.266.668 5.557 2.006.817.818 1.342 1.856 1.58 3.116.236 1.261.354 2.803.354 4.624v2.22zm-55.746-8.84c-.331-.852-.882-1.663-1.65-2.433a8.958 8.958 0 0 0-2.93-1.952 9.121 9.121 0 0 0-3.533-.693c-1.242 0-2.423.23-3.541.693a8.927 8.927 0 0 0-2.939 1.952c-.769.77-1.32 1.58-1.65 2.432-.332.852-.54 1.83-.622 2.93-.083 1.1-.124 2.816-.124 5.149 0 2.33.04 4.046.124 5.147.083 1.1.29 2.078.621 2.93.332.852.882 1.663 1.651 2.432a8.9 8.9 0 0 0 2.948 1.952 9.206 9.206 0 0 0 3.532.693 9.15 9.15 0 0 0 3.524-.693 8.942 8.942 0 0 0 2.938-1.952c.77-.769 1.32-1.58 1.651-2.432.331-.852.538-1.83.621-2.93s.124-2.816.124-5.147c0-2.333-.041-4.048-.124-5.149-.083-1.1-.29-2.078-.62-2.93zm-1.35 12.754c-.082 1.073-.262 1.975-.54 2.708-.278.734-.724 1.409-1.338 2.024a6.725 6.725 0 0 1-2.234 1.49 6.943 6.943 0 0 1-2.66.516 7.03 7.03 0 0 1-2.66-.515 6.662 6.662 0 0 1-2.25-1.49 5.662 5.662 0 0 1-1.313-2.007c-.283-.746-.467-1.653-.55-2.726-.082-1.07-.124-2.628-.124-4.676 0-1.373.018-2.546.054-3.515a17.61 17.61 0 0 1 .266-2.593c.141-.757.34-1.384.593-1.881a5.78 5.78 0 0 1 1.073-1.439 6.547 6.547 0 0 1 2.26-1.49 7.213 7.213 0 0 1 2.652-.498c.933 0 1.817.167 2.65.497a6.599 6.599 0 0 1 2.243 1.491 5.773 5.773 0 0 1 1.33 2.015c.283.74.466 1.649.549 2.726.082 1.077.124 2.639.124 4.687 0 2.048-.042 3.605-.124 4.676zm-36.1 2.336l-9.019-19.955h-1.97v25.884h1.97v-21.338l7.989 17.698h1.97l7.847-17.698v21.338h1.97V223.23h-1.97l-8.788 19.955zm158.238 2.468l-14.93-22.423h-1.97v25.884h1.97v-22.51l14.93 22.51h1.97V223.23h-1.97v22.423zm72.888 3.46h15.712v-1.739h-13.741v-10.439h11.699v-1.74h-11.7v-10.225h13.742v-1.74h-15.712v25.884z" fill="#4d4d4f"/><path d="M91.072 80.223c-1.86-4.462-4.78-8.033-8.759-10.711-3.981-2.678-8.686-4.019-14.115-4.019-5.355 0-10.06 1.34-14.114 4.019-4.055 2.678-7.048 6.25-8.981 10.711-1.043 2.38-1.73 4.483-2.065 6.303-.335 1.823-.652 4.966-.949 9.428h52.106c-.223-6.023-1.266-11.268-3.123-15.73zM0 249.21h136.937V.003H0V249.21zM25.081 73.417c4.059-8.85 9.773-15.62 17.146-20.306 7.37-4.689 16.01-7.03 25.916-7.03 10.126 0 18.914 2.341 26.36 7.03 7.447 4.685 13.107 11.25 16.98 19.692 3.872 8.442 5.81 18.132 5.81 29.067v10.265H42.088c0 6.767 1.153 12.552 3.459 17.348 2.305 4.798 5.636 8.519 9.986 11.158 4.352 2.642 9.726 3.962 16.123 3.962 6.396 0 11.566-.894 15.51-2.678 3.94-1.784 8.144-4.835 12.607-9.15l14.84 13.835c-6.33 6.324-12.735 10.918-19.214 13.78-6.478 2.866-14.558 4.295-24.24 4.295-7.447 0-14.354-1.078-20.72-3.235-6.368-2.156-11.898-5.579-16.59-10.264-4.693-4.686-8.341-10.825-10.948-18.412-2.606-7.587-3.91-16.734-3.91-27.446 0-12.421 2.03-23.058 6.09-31.911zm210.046 26.555c-5.171-2.529-11.363-4.09-18.577-4.685l-18.298-1.674c-10.712-.965-16.068-5.356-16.068-13.166 0-4.611 1.802-8.257 5.411-10.935 3.607-2.678 8.832-4.018 15.677-4.018 12.274 0 21.794 2.83 28.563 8.48l14.617-14.84c-9.98-8.7-24.318-13.053-43.013-13.053-12.514 0-22.921 3.178-31.225 9.538-8.306 6.362-12.457 15.01-12.457 25.942 0 6.696 1.324 12.314 3.974 16.848 2.65 4.54 6.53 8.033 11.642 10.488 5.112 2.457 11.361 4.018 18.75 4.688l18.522 1.561c10.337.82 15.508 5.395 15.508 13.723 0 3.497-1.08 6.437-3.239 8.817-2.16 2.38-5.195 4.165-9.103 5.353-3.91 1.191-8.247 1.787-13.013 1.787-14.445 0-25.58-4.018-33.396-12.052l-15.336 15.287c4.543 4.39 9.254 7.775 14.131 10.155 4.878 2.38 10.128 4.054 15.75 5.019 5.623.968 11.896 1.45 18.823 1.45 9.534 0 17.91-1.393 25.135-4.182 7.222-2.79 12.881-6.937 16.979-12.442 4.094-5.504 6.143-12.198 6.143-20.082 0-6.768-1.358-12.5-4.073-17.185-2.715-4.685-6.658-8.293-11.827-10.822zm61.38 63.376h23.319V47.532h-23.32v115.816zm-.67-138.69h24.659V0h-24.66v24.658zm147.656 28.453c-7.447-4.689-16.235-7.03-26.36-7.03-9.907 0-18.547 2.341-25.917 7.03-7.373 4.685-13.087 11.456-17.146 20.306-4.058 8.853-6.089 19.49-6.089 31.911 0 10.712 1.304 19.86 3.91 27.446 2.606 7.587 6.255 13.726 10.948 18.412 4.692 4.685 10.222 8.108 16.589 10.265 6.367 2.156 13.273 3.234 20.722 3.234 9.68 0 17.76-1.43 24.24-4.295 6.478-2.862 12.884-7.456 19.214-13.78l-14.84-13.836c-4.464 4.316-8.667 7.367-12.608 9.15-3.944 1.785-9.114 2.679-15.51 2.679-6.397 0-11.77-1.32-16.123-3.962-4.35-2.64-7.68-6.36-9.986-11.158-2.306-4.796-3.458-10.58-3.458-17.348h75.202V101.87c0-10.935-1.937-20.625-5.81-29.067-3.872-8.441-9.532-15.007-16.978-19.692zm-52.414 42.843c.296-4.462.613-7.605.948-9.428.334-1.82 1.022-3.923 2.065-6.303 1.933-4.462 4.926-8.033 8.98-10.711 4.055-2.678 8.76-4.018 14.115-4.018 5.43 0 10.134 1.34 14.115 4.018 3.978 2.678 6.899 6.25 8.76 10.711 1.856 4.463 2.899 9.708 3.122 15.731H391.08zm160.735-49.873c-9.818 0-17.89 1.233-24.21 3.703-6.325 2.469-12.126 6.845-17.407 13.127l15.285 14.37c3.274-4.15 6.713-7.04 10.322-8.672 3.607-1.629 8.647-2.445 15.118-2.445 8.852 0 15.286 1.742 19.302 5.224 4.017 3.486 6.026 8.934 6.026 16.342v8.224h-30.683c-8.555 0-15.827 1.397-21.814 4.185-5.989 2.788-10.507 6.693-13.556 11.716-3.05 5.022-4.574 10.842-4.574 17.46 0 10.266 3.049 18.562 9.15 24.882 3.495 3.497 7.81 6.122 12.942 7.867 5.132 1.746 11.194 2.621 18.186 2.621 7.066 0 12.904-.91 17.518-2.731 4.612-1.823 9.038-4.855 13.277-9.094v10.488h22.873V85.913c0-26.556-15.918-39.832-47.755-39.832zm24.436 75.425c0 8.108-1.674 13.836-5.02 17.184-2.829 2.678-5.915 4.444-9.261 5.3-3.348.854-7.514 1.283-12.497 1.283-14.133 0-21.2-5.469-21.2-16.404 0-5.356 1.766-9.484 5.3-12.382 3.532-2.902 8.684-4.352 15.454-4.352h27.224v9.37z" fill="#28aae1"/></svg>